
<region>
sample=../Samples/kickmic/ltom/kickmic_ltom_offcenter_vl1.flac
hivel=10

<region>
sample=../Samples/kickmic/ltom/kickmic_ltom_offcenter_vl2.flac
lovel=11
hivel=21

<region>
sample=../Samples/kickmic/ltom/kickmic_ltom_offcenter_vl3.flac
lovel=22
hivel=32

<region>
sample=../Samples/kickmic/ltom/kickmic_ltom_offcenter_vl4.flac
lovel=33
hivel=42

<region>
sample=../Samples/kickmic/ltom/kickmic_ltom_offcenter_vl5.flac
lovel=43
hivel=53

<region>
sample=../Samples/kickmic/ltom/kickmic_ltom_offcenter_vl6.flac
lovel=54
hivel=63

<region>
sample=../Samples/kickmic/ltom/kickmic_ltom_offcenter_vl7.flac
lovel=64
hivel=74

<region>
sample=../Samples/kickmic/ltom/kickmic_ltom_offcenter_vl8.flac
lovel=75
hivel=85

<region>
sample=../Samples/kickmic/ltom/kickmic_ltom_offcenter_vl9.flac
lovel=86
hivel=95

<region>
sample=../Samples/kickmic/ltom/kickmic_ltom_offcenter_vl10.flac
lovel=96
hivel=106

<region>
sample=../Samples/kickmic/ltom/kickmic_ltom_offcenter_vl11.flac
lovel=107
hivel=117

<region>
sample=../Samples/kickmic/ltom/kickmic_ltom_offcenter_vl12.flac
lovel=118